<svg id="favicon" xmlns="http://www.w3.org/2000/svg" viewBox="0 0 16 16"><defs><style>.cls-1{fill:#ff0;}</style></defs><polygon points="8 15.59 10.18 13.7 10.92 11.99 12.89 10.88 12.76 9.16 13.51 8.61 12.04 5.21 12.72 1.99 12.08 0.41 9.63 2.15 8 1.84 8 1.84 6.37 2.15 3.92 0.41 3.28 1.99 3.96 5.21 2.49 8.61 3.24 9.16 3.11 10.88 5.08 11.99 5.82 13.7 8 15.59 8 15.59"/><polygon class="cls-1" points="4.52 5.41 5.97 7.39 7.47 7.73 4.52 5.41"/><polygon class="cls-1" points="11.48 5.41 10.03 7.39 8.53 7.73 11.48 5.41"/></svg>